<svg width="800" height="960" viewBox="0 0 800 960" fill="none" xmlns="http://www.w3.org/2000/svg">
  <defs>
    <linearGradient id="lunaChain" x1="399" y1="144" x2="399" y2="676" gradientUnits="userSpaceOnUse">
      <stop stop-color="#D9DEE4"/>
      <stop offset="0.5" stop-color="#FAFBFC"/>
      <stop offset="1" stop-color="#C7CDD5"/>
    </linearGradient>
    <linearGradient id="lunaPendant" x1="313" y1="462" x2="487" y2="626" gradientUnits="userSpaceOnUse">
      <stop stop-color="#FFFFFF"/>
      <stop offset="0.6" stop-color="#D2D8E0"/>
      <stop offset="1" stop-color="#F8FBFD"/>
    </linearGradient>
  </defs>
  <rect width="800" height="960" fill="#FAFAFB"/>
  <rect x="72" y="72" width="656" height="816" rx="36" fill="#FFFFFF"/>
  <path d="M310 192C339 149 367 134 400 134C433 134 461 149 490 192" stroke="url(#lunaChain)" stroke-width="8" stroke-linecap="round"/>
  <path d="M309 192C325 291 347 360 386 441" stroke="url(#lunaChain)" stroke-width="10" stroke-linecap="round"/>
  <path d="M491 192C475 291 453 360 414 441" stroke="url(#lunaChain)" stroke-width="10" stroke-linecap="round"/>
  <ellipse cx="400" cy="732" rx="156" ry="24" fill="#E6EAF0"/>
  <circle cx="400" cy="518" r="98" fill="url(#lunaPendant)"/>
  <path d="M399 421L433 365L467 421H399Z" fill="#FBFDFF" stroke="#D8E0EA" stroke-width="6"/>
  <circle cx="400" cy="518" r="39" fill="#F4F8FD" stroke="#E3EAF2" stroke-width="12"/>
</svg>